<mxfile host="app.diagrams.net" agent="Mozilla/5.0 (Windows NT 10.0; Win64; x64) AppleWebKit/537.36 (KHTML, like Gecko) Chrome/137.0.0.0 Safari/537.36 Edg/137.0.0.0" version="27.1.6">
  <diagram name="PÃ¡gina-1" id="e45OjPIBaFHz5NlUAJ0t">
    <mxGraphModel grid="1" page="1" gridSize="10" guides="1" tooltips="1" connect="1" arrows="1" fold="1" pageScale="1" pageWidth="827" pageHeight="1169" math="0" shadow="0">
      <root>
        <mxCell id="0" />
        <mxCell id="1" parent="0" />
        <mxCell id="sgAW8uFoZmO3ORvUETgr-3" value="CU021 Listado de Recursos" style="swimlane;childLayout=stackLayout;resizeParent=1;resizeParentMax=0;startSize=20;horizontal=0;horizontalStack=1;fontStyle=1" vertex="1" parent="1">
          <mxGeometry x="1737" y="345" width="660" height="480" as="geometry">
            <mxRectangle x="200" y="80" width="40" height="50" as="alternateBounds" />
          </mxGeometry>
        </mxCell>
        <mxCell id="sgAW8uFoZmO3ORvUETgr-4" style="edgeStyle=orthogonalEdgeStyle;rounded=0;orthogonalLoop=1;jettySize=auto;html=1;entryX=0;entryY=0.5;entryDx=0;entryDy=0;strokeColor=light-dark(#ff0000, #ededed);" edge="1" parent="sgAW8uFoZmO3ORvUETgr-3" source="7XIlE-nnwFlKDlA_zqHg-1" target="sgAW8uFoZmO3ORvUETgr-15">
          <mxGeometry relative="1" as="geometry">
            <Array as="points" />
            <mxPoint x="280" y="110" as="sourcePoint" />
          </mxGeometry>
        </mxCell>
        <mxCell id="sgAW8uFoZmO3ORvUETgr-6" value="Administrador" style="swimlane;startSize=20;" vertex="1" parent="sgAW8uFoZmO3ORvUETgr-3">
          <mxGeometry x="20" width="290" height="480" as="geometry" />
        </mxCell>
        <mxCell id="sgAW8uFoZmO3ORvUETgr-7" value="" style="ellipse;html=1;shape=startState;fillColor=#000000;strokeColor=#ff0000;fillStyle=auto;" vertex="1" parent="sgAW8uFoZmO3ORvUETgr-6">
          <mxGeometry x="20" y="25" width="30" height="30" as="geometry" />
        </mxCell>
        <mxCell id="sgAW8uFoZmO3ORvUETgr-9" value="" style="edgeStyle=orthogonalEdgeStyle;html=1;verticalAlign=bottom;endArrow=open;endSize=8;strokeColor=#ff0000;rounded=0;" edge="1" parent="sgAW8uFoZmO3ORvUETgr-6" source="sgAW8uFoZmO3ORvUETgr-7" target="7XIlE-nnwFlKDlA_zqHg-1">
          <mxGeometry relative="1" as="geometry">
            <mxPoint x="165" y="55" as="targetPoint" />
            <mxPoint x="340" y="320" as="sourcePoint" />
          </mxGeometry>
        </mxCell>
        <mxCell id="7XIlE-nnwFlKDlA_zqHg-1" value="Pulsa el apartado &quot;Recursos&quot;" style="rounded=1;whiteSpace=wrap;html=1;arcSize=40;fontColor=#000000;fillColor=#ffffc0;strokeColor=#ff0000;" vertex="1" parent="sgAW8uFoZmO3ORvUETgr-6">
          <mxGeometry x="90" y="85" width="120" height="50" as="geometry" />
        </mxCell>
        <mxCell id="sgAW8uFoZmO3ORvUETgr-14" value="Sistema" style="swimlane;startSize=20;" vertex="1" parent="sgAW8uFoZmO3ORvUETgr-3">
          <mxGeometry x="310" width="350" height="480" as="geometry" />
        </mxCell>
        <mxCell id="sgAW8uFoZmO3ORvUETgr-15" value="Mostrar apartado" style="rounded=1;whiteSpace=wrap;html=1;arcSize=40;fontColor=#000000;fillColor=#ffffc0;strokeColor=#ff0000;" vertex="1" parent="sgAW8uFoZmO3ORvUETgr-14">
          <mxGeometry x="150" y="85" width="120" height="50" as="geometry" />
        </mxCell>
        <mxCell id="sgAW8uFoZmO3ORvUETgr-16" value="" style="ellipse;html=1;shape=endState;fillColor=#000000;strokeColor=#ff0000;" vertex="1" parent="sgAW8uFoZmO3ORvUETgr-14">
          <mxGeometry x="300" y="420" width="30" height="30" as="geometry" />
        </mxCell>
        <mxCell id="sgAW8uFoZmO3ORvUETgr-17" value="Mostrar listado de recursos" style="rounded=1;whiteSpace=wrap;html=1;arcSize=40;fontColor=#000000;fillColor=#ffffc0;strokeColor=#ff0000;" vertex="1" parent="sgAW8uFoZmO3ORvUETgr-14">
          <mxGeometry x="150" y="280" width="120" height="50" as="geometry" />
        </mxCell>
        <mxCell id="sgAW8uFoZmO3ORvUETgr-18" style="edgeStyle=orthogonalEdgeStyle;rounded=0;orthogonalLoop=1;jettySize=auto;html=1;strokeColor=light-dark(#ff0000, #ededed);exitX=0.5;exitY=1;exitDx=0;exitDy=0;entryX=0.5;entryY=0;entryDx=0;entryDy=0;" edge="1" parent="sgAW8uFoZmO3ORvUETgr-14" source="sgAW8uFoZmO3ORvUETgr-15" target="sgAW8uFoZmO3ORvUETgr-17">
          <mxGeometry relative="1" as="geometry">
            <mxPoint x="-85" y="215" as="targetPoint" />
            <Array as="points">
              <mxPoint x="210" y="250" />
              <mxPoint x="210" y="250" />
            </Array>
          </mxGeometry>
        </mxCell>
        <mxCell id="sgAW8uFoZmO3ORvUETgr-21" style="edgeStyle=orthogonalEdgeStyle;rounded=0;orthogonalLoop=1;jettySize=auto;html=1;entryX=0.5;entryY=0;entryDx=0;entryDy=0;strokeColor=light-dark(#ff0000, #ededed);" edge="1" parent="sgAW8uFoZmO3ORvUETgr-14" source="sgAW8uFoZmO3ORvUETgr-17" target="sgAW8uFoZmO3ORvUETgr-16">
          <mxGeometry relative="1" as="geometry">
            <mxPoint x="-85" y="215" as="targetPoint" />
          </mxGeometry>
        </mxCell>
      </root>
    </mxGraphModel>
  </diagram>
</mxfile>
